<svg width="255" height="77" viewBox="0 0 255 77" fill="none" xmlns="http://www.w3.org/2000/svg">
<g clip-path="url(#clip0_10_405)">
<path d="M113.486 76.7045H211.559C215.189 76.7045 218.67 75.2787 221.257 72.7446L250.847 51.3574C256.382 45.9281 256.382 30.7827 250.847 25.3503L221.257 3.96302C218.67 1.42582 215.189 0 211.559 0H113.486C105.834 0 99.6359 6.19825 99.6359 13.8503V62.8511C99.6359 70.5032 105.834 76.7014 113.486 76.7014V76.7045ZM227.415 29.2604C232.439 29.2604 236.508 33.3292 236.508 38.3538C236.508 43.3784 232.439 47.4473 227.415 47.4473C222.39 47.4473 218.321 43.3784 218.321 38.3538C218.321 33.3292 222.39 29.2604 227.415 29.2604Z" fill="#B295F3"/>
<path d="M117.832 47.0643C117.832 49.2684 118.383 50.8094 119.488 51.6842C120.59 52.559 122.038 52.9949 123.831 52.9949C124.75 52.9949 125.612 52.9046 126.415 52.7178C127.218 52.5341 128.081 52.2135 128.999 51.7527V56.301C128.081 56.8085 127.103 57.1883 126.07 57.4373C125.036 57.6895 123.875 57.8171 122.589 57.8171C121.163 57.8171 119.831 57.6334 118.592 57.2661C117.35 56.8987 116.282 56.3135 115.385 55.5072C114.489 54.704 113.788 53.658 113.284 52.3722C112.776 51.0865 112.527 49.5455 112.527 47.7523V26.2437H107.565V21.5553H112.527V10.8026H117.835V21.5553H129.142V26.2437H117.835V47.0612L117.832 47.0643Z" fill="#F2F2F2"/>
<path d="M140.477 26.4865C138.752 26.969 137.065 27.601 135.412 28.3824L133.827 24.0396C135.801 23.1212 137.803 22.3958 139.823 21.8697C141.844 21.3405 144.166 21.0759 146.787 21.0759C151.659 21.0759 155.405 22.2838 158.023 24.6964C160.641 27.1091 161.951 30.683 161.951 35.415V57.2007H156.849V51.8243C155.607 53.4338 153.941 54.8565 151.852 56.0986C149.76 57.3408 147.13 57.9603 143.958 57.9603C142.305 57.9603 140.683 57.7299 139.098 57.2692C137.513 56.8115 136.088 56.108 134.824 55.1678C133.56 54.2276 132.548 53.0664 131.791 51.6873C131.035 50.3082 130.655 48.6769 130.655 46.7935C130.655 44.91 131.023 43.2445 131.757 41.7938C132.492 40.3462 133.538 39.1383 134.892 38.1732C136.246 37.2081 137.856 36.4734 139.717 35.9691C141.579 35.4648 143.634 35.2095 145.888 35.2095C148.142 35.2095 150.184 35.3465 151.887 35.6235C153.587 35.9006 155.24 36.268 156.849 36.7256V35.4835C156.849 32.2676 155.918 29.8425 154.057 28.2112C152.195 26.5799 149.586 25.7642 146.233 25.7642C144.119 25.7642 142.202 26.004 140.477 26.4865ZM138.78 41.1338C136.993 42.4662 136.1 44.2843 136.1 46.5787C136.1 47.7274 136.34 48.7392 136.822 49.6109C137.302 50.4825 137.955 51.2297 138.78 51.8523C139.605 52.4718 140.555 52.945 141.632 53.2657C142.709 53.5863 143.842 53.7482 145.035 53.7482C146.682 53.7482 148.229 53.5054 149.673 53.0229C151.118 52.5403 152.375 51.8741 153.453 51.0242C154.527 50.1743 155.377 49.1626 155.996 47.992C156.616 46.8215 156.924 45.5233 156.924 44.0975V40.6513C155.594 40.2839 154.072 39.9384 152.354 39.6177C150.635 39.297 148.677 39.1352 146.479 39.1352C143.136 39.1352 140.57 39.8014 138.784 41.1338H138.78Z" fill="#F2F2F2"/>
<path d="M200.729 58.5767C199.879 60.7372 198.662 62.5397 197.074 63.9874C195.489 65.435 193.581 66.5277 191.352 67.2624C189.123 67.9971 186.629 68.3644 183.871 68.3644C180.882 68.3644 178.034 67.9504 175.322 67.1223C172.611 66.2942 170.061 65.0552 167.67 63.399L170.083 59.2616C172.15 60.731 174.311 61.858 176.561 62.6394C178.812 63.4208 181.225 63.8099 183.8 63.8099C187.75 63.8099 190.901 62.7421 193.245 60.6034C195.589 58.4678 196.759 55.3079 196.759 51.1239V46.918C195.197 48.9852 193.288 50.7565 191.038 52.2259C188.784 53.6984 186.029 54.4331 182.766 54.4331C180.605 54.4331 178.526 54.0533 176.527 53.2968C174.529 52.5404 172.748 51.4352 171.185 49.9876C169.622 48.54 168.371 46.7811 167.428 44.7139C166.484 42.6468 166.014 40.3026 166.014 37.6814C166.014 35.0601 166.484 32.7066 167.428 30.6145C168.368 28.5225 169.622 26.7543 171.185 25.3066C172.748 23.859 174.538 22.7445 176.561 21.9631C178.585 21.1817 180.652 20.7926 182.766 20.7926C184.419 20.7926 185.948 20.9887 187.352 21.3779C188.752 21.7701 190.016 22.2869 191.143 22.9282C192.27 23.5726 193.291 24.3291 194.21 25.2039C195.128 26.0787 195.956 26.9971 196.691 27.9622V21.5522H201.999V50.99C201.999 53.8852 201.572 56.4131 200.722 58.5736L200.729 58.5767ZM195.801 32.6225C195.066 31.1282 194.088 29.8549 192.871 28.7965C191.654 27.738 190.262 26.9255 188.7 26.3495C187.137 25.7736 185.505 25.4872 183.806 25.4872C182.106 25.4872 180.506 25.7643 179.015 26.3153C177.52 26.8663 176.21 27.6695 175.086 28.728C173.959 29.7864 173.075 31.0597 172.43 32.554C171.786 34.0483 171.465 35.7139 171.465 37.5537C171.465 39.3936 171.798 41.0591 172.465 42.5503C173.131 44.0446 174.027 45.3303 175.154 46.4106C176.281 47.4908 177.589 48.3189 179.083 48.8918C180.577 49.4677 182.15 49.7541 183.806 49.7541C185.462 49.7541 187.137 49.4677 188.7 48.8918C190.262 48.3189 191.651 47.5033 192.871 46.4448C194.088 45.3895 195.066 44.1131 195.801 42.6188C196.535 41.1245 196.903 39.459 196.903 37.6222C196.903 35.7855 196.535 34.1168 195.801 32.6225Z" fill="#F2F2F2"/>
<path d="M33.1455 21.2379L39.845 43.4532L42.102 35.5552L46.9679 21.2379H58.3215L45.4144 56.2886H35.331L29.1265 38.8706L22.9905 56.2886H12.8355L0 21.2379H11.3536L16.2194 35.5552L18.4765 43.4532L25.1759 21.2379H33.1455Z" fill="#74009F"/>
<path d="M65.3042 41.9713C65.7992 45.3553 69.0431 48.1073 74.7557 48.1073C77.5046 48.1073 81.3151 47.4722 83.7838 45.3584L89.4964 51.7061C85.7575 55.3734 79.7647 56.8552 74.5471 56.8552C61.9234 56.8552 55.0122 49.4491 55.0122 38.3072C55.0122 27.1652 62.1351 20.3226 73.4887 20.3226C84.8423 20.3226 93.0952 27.7287 90.9067 41.9713H65.3073H65.3042ZM81.807 34.5652C81.5953 30.7578 77.7163 28.9927 73.4855 28.9927C69.2548 28.9927 66.2911 31.1096 65.3042 34.5652H81.807Z" fill="#74009F"/>
</g>
<defs>
<clipPath id="clip0_10_405">
<rect width="255" height="76.7045" fill="white"/>
</clipPath>
</defs>
</svg>
