<?xml version="1.0" encoding="UTF-8"?>
<svg id="Logo_Posi" data-name="Logo Posi" xmlns="http://www.w3.org/2000/svg" viewBox="0 0 1080 1080">
  <defs>
    <style>
      .cls-1 {
        fill: #b295f3;
      }

      .cls-1, .cls-2 {
        stroke-width: 0px;
      }

      .cls-2 {
        fill: #f2f2f2;
      }
    </style>
  </defs>
  <polygon class="cls-2" points="516.32 412.55 420.71 672.2 346.01 672.2 300.04 543.15 254.59 672.2 179.34 672.2 84.26 412.55 168.38 412.55 204.42 518.61 221.13 577.12 270.78 412.55 329.8 412.55 379.43 577.12 396.16 518.61 432.21 412.55 516.32 412.55"/>
  <path class="cls-2" d="m628.66,405.76c-84.14,0-136.89,54.85-136.89,133.22,0,82.54,51.2,137.39,144.72,137.39,38.66,0,83.06-10.96,110.76-38.13l-42.32-47.03c-18.29,15.69-46.5,20.38-66.87,20.38-42.32,0-66.35-20.38-70.02-45.45h189.67c16.19-105.54-41.27-160.39-129.04-160.39Zm-60.62,105.53c7.33-25.6,30.31-41.27,60.62-41.27s60.08,13.06,61.64,41.27h-122.26Z"/>
  <path class="cls-2" d="m933.91,540c0,33.43-27.05,60.49-60.47,60.49s-60.53-27.06-60.53-60.49,27.06-60.49,60.53-60.49,60.47,27.06,60.47,60.49Z"/>
  <path class="cls-1" d="m1029.37,474.17l-196.93-142.32c-17.24-16.87-40.38-26.38-64.54-26.38H115.22c-50.94,0-92.22,41.27-92.22,92.21v284.65c0,50.94,41.29,92.21,92.22,92.21h652.68c24.16,0,47.3-9.51,64.54-26.38l196.93-142.32c36.83-36.16,36.83-95.5,0-131.66Zm-683.36,198.04l-45.98-129.06-45.45,129.06h-75.24l-95.08-259.65h84.11l36.04,106.05,16.72,58.51,49.64-164.56h59.03l49.64,164.56,16.72-58.51,36.06-106.05h84.11l-95.61,259.65h-74.7Zm411.69-106.07h-189.66c3.66,25.08,27.69,45.45,70.01,45.45,20.37,0,48.59-4.69,66.87-20.37l42.32,47.02c-27.69,27.17-72.1,38.14-110.76,38.14-93.51,0-144.71-54.85-144.71-137.39s52.76-133.22,136.88-133.22,145.24,54.85,129.04,160.38Zm115.73,34.35c-33.47,0-60.53-27.06-60.53-60.49s27.06-60.49,60.53-60.49,60.49,27.06,60.49,60.49-27.06,60.49-60.49,60.49Zm-244.78-130.47c-30.31,0-53.3,15.67-60.61,41.27h122.26c-1.57-28.22-30.31-41.27-61.65-41.27Z"/>
</svg>